<?xml version="1.0" encoding="iso-8859-1"?>
<!-- Generator: Adobe Illustrator 23.0.2, SVG Export Plug-In . SVG Version: 6.00 Build 0)  -->
<svg version="1.1" id="Layer_1" xmlns="http://www.w3.org/2000/svg" xmlns:xlink="http://www.w3.org/1999/xlink" x="0px" y="0px"
	 viewBox="0 0 1200 1200" style="enable-background:new 0 0 1200 1200;" xml:space="preserve">
<path d="M779.959,723.071c-50.283-15.085-46.003-66.05-46.003-66.05c32.143-32.236,59.35-76.01,82.878-128.38
	c50.004-27.656,77.101-116.211,31.846-150.85c8.97-74.626,0-133.531-10.057-183.814c14.324-0.138,26.986,3.659,38.551,10.057
	c-7.802-22.6-25.491-38.548-48.607-50.842c10.955-3.732,27.817-2.637,48.607,1.676c-23.617-35.038-60.754-47.658-103.919-50.283
	C607.319-109.4,306.736,171.071,213.432,188.39c18.686,9.872,58.182,16.713,109.786,21.789c0,0-59.502,21.789-53.636,51.96
	c0,0,40.227-17.599,61.178-11.733c0,0-36.979,23.529,19.584,125.011c-0.002,0.002-0.009,0.008-0.009,0.008
	s-70.417,77.232,39.089,158.803c0,0,33.322,84.46,79.336,122.915c0,0-15.644,55.591-32.405,59.642
	c-16.761,4.051-259.239,64.391-287.174,167.193c0,0-45.814,94.98-33.522,160.907c0,0,172.081,136.324,478.252,129.061
	c139.484,8.197,361.497-12.63,489.426-129.061C1121.665,773.726,792.145,728.171,779.959,723.071z M421.775,501.824
	c0,0-62.769-20.891-49.236-90.061c0-0.002,0.001-0.003,0.001-0.005c14.531,22.021,32.725,46.893,55.435,74.981
	c0,0-41.065-228.79-4.19-224.599c0,0,91.348,26.818,149.174,22.627c0,0,8.864-1.038,20.951-3.065v0
	c15.911-0.592,30.597-4.661,44.295-10.293c6.916-2.331,12.871-4.962,16.938-7.877c17.601-9.062,33.51-19.565,48.272-26.75
	c10.578-4.583,21.166-8.056,29.723-8.551c3.682-0.027,7.005,0.434,10.027,1.258c9.045,3.575,15.502,9.64,20.03,15.737
	c8.168,13.297,8.979,29.544,8.979,29.55c0,0.002,0,0.004,0,0.006c-10.297,181.919,15.327,194.986,15.327,194.986
	c-1.305-11.549,0.052-30.572,3.307-45.756c2.589-8.302,6.389-16.098,11.466-23.361c7.256-1.53,14.721,2.776,18.764,5.697
	c1.93,1.395,3.32,3.421,3.845,5.744c16.588,73.383-45.763,87.218-45.763,87.218C723.506,680.983,593.91,675.302,593.91,675.302
	S463.065,668.318,421.775,501.824z M376.717,920.853c0,0-29.611-107.83,20.951-153.364c24.249,54.032,56.225,99.755,97.494,135.486
	C495.163,902.974,406.887,889.565,376.717,920.853z M599.801,924.328l-0.02,1.134c-0.351-0.184-0.698-0.377-1.049-0.562
	c-0.351,0.185-0.698,0.378-1.049,0.562l-0.021-1.134c-63.586-33.819-117.831-85.806-157.112-166.896
	c34.301-12.355,54.774-35.597,59.502-71.235c30.164,21.348,61.528,30.879,93.864,30.846l-0.005-0.257
	c1.61,0.095,3.215,0.14,4.821,0.188c1.605-0.048,3.21-0.093,4.821-0.188l-0.005,0.257c4.764,0.005,9.504-0.225,14.225-0.642l0,0
	c8.32-0.736,16.572-2.146,24.753-4.252c0.341-0.088,0.682-0.173,1.023-0.263c1.333-0.353,2.663-0.729,3.992-1.119
	c0.478-0.141,0.956-0.285,1.433-0.431c1.261-0.384,2.52-0.781,3.778-1.2c0.532-0.177,1.063-0.366,1.595-0.549
	c1.229-0.424,2.458-0.851,3.683-1.309c0.496-0.185,0.99-0.388,1.485-0.579c2.189-0.842,4.373-1.743,6.551-2.695
	c0.729-0.319,1.459-0.622,2.186-0.953c0.889-0.404,1.775-0.838,2.662-1.26c0.928-0.442,1.855-0.88,2.781-1.342
	c0.837-0.417,1.672-0.855,2.506-1.289c0.983-0.512,1.966-1.03,2.947-1.565c0.79-0.431,1.58-0.87,2.368-1.316
	c1.046-0.592,2.09-1.199,3.133-1.817c0.727-0.431,1.455-0.86,2.181-1.305c1.172-0.717,2.341-1.461,3.509-2.212
	c0.595-0.383,1.192-0.754,1.786-1.146c1.766-1.164,3.528-2.359,5.286-3.603c4.728,35.638,25.201,58.88,59.502,71.235
	c-1.236,2.551-2.487,5.073-3.752,7.568c-0.349,0.688-0.708,1.357-1.059,2.041c-0.923,1.796-1.845,3.594-2.784,5.36
	c-0.378,0.712-0.766,1.406-1.147,2.113c-0.927,1.722-1.853,3.446-2.794,5.14c-0.34,0.612-0.689,1.208-1.031,1.816
	c-0.993,1.766-1.987,3.531-2.996,5.267c-0.315,0.542-0.638,1.07-0.955,1.609c-1.049,1.785-2.099,3.567-3.164,5.32
	c-0.269,0.443-0.544,0.874-0.815,1.314c-1.124,1.834-2.252,3.66-3.394,5.459c-0.221,0.347-0.446,0.685-0.667,1.031
	c-1.199,1.876-2.404,3.74-3.623,5.578c-0.184,0.278-0.373,0.548-0.557,0.825c-1.265,1.896-2.537,3.778-3.823,5.634
	c-0.137,0.197-0.276,0.389-0.413,0.585c-1.339,1.924-2.687,3.831-4.048,5.712c-0.1,0.138-0.202,0.273-0.302,0.411
	c-1.405,1.936-2.82,3.853-4.249,5.743c-0.046,0.061-0.094,0.121-0.14,0.182c-1.482,1.959-2.975,3.894-4.481,5.805
	c-0.021,0.027-0.042,0.052-0.063,0.079c-7.734,9.805-15.793,18.978-24.154,27.566c0,0.001-0.001,0.001-0.001,0.002l0,0
	C660.329,886.477,631.207,907.624,599.801,924.328z M820.745,920.853c-30.17-31.287-118.445-17.879-118.445-17.879
	c41.269-35.731,73.245-81.454,97.494-135.486C850.356,813.023,820.745,920.853,820.745,920.853z"/>
</svg>
